<svg display="none" width="0" height="0" version="1.1" xmlns="http://www.w3.org/2000/svg" xmlns:xlink="http://www.w3.org/1999/xlink">
<defs>
<symbol id="icon-camera-alt" viewBox="0 0 1024 1024">
	<title>camera-alt</title>
	<path class="path1" d="M648.533 512c0 75.405-61.128 136.533-136.533 136.533s-136.533-61.128-136.533-136.533c0-75.405 61.128-136.533 136.533-136.533s136.533 61.128 136.533 136.533z"></path>
	<path class="path2" d="M384 85.333l-78.080 85.333h-135.253c-47.147 0-85.333 38.187-85.333 85.333v512c0 47.147 38.187 85.333 85.333 85.333h682.667c47.147 0 85.333-38.187 85.333-85.333v-512c0-47.147-38.187-85.333-85.333-85.333h-135.253l-78.080-85.333h-256zM512 725.333c-117.76 0-213.333-95.573-213.333-213.333s95.573-213.333 213.333-213.333 213.333 95.573 213.333 213.333-95.573 213.333-213.333 213.333z"></path>
</symbol>
<symbol id="icon-facebook" viewBox="0 0 1024 1024">
	<title>facebook</title>
	<path class="path1" d="M672 192c-88.366 0-160 71.634-160 160v96h-128v128h128v448h128v-448h144l32-128h-176v-96c0-17.672 14.326-32 32-32h160v-128h-160z"></path>
</symbol>
</defs>
</svg>
